<?xml version="1.0" encoding="utf-8"?>
<svg version="1.1" xmlns:xlink="http://www.w3.org/1999/xlink" width="50px" height="18px" xmlns="http://www.w3.org/2000/svg">
  <g transform="matrix(1 0 0 1 -487 -2119 )">
    <path d="M 49.498997995992 1.85567010309278  C 49.8329993319973 2.06185567010309  50 2.29896907216495  50 2.56701030927835  C 50 2.83505154639175  49.8329993319973 3.07216494845361  49.498997995992 3.27835051546392  L 26.1523046092184 17.6907216494845  C 25.8183032732131 17.8969072164948  25.4342017368069 18  25 18  C 24.5657982631931 18  24.1816967267869 17.8969072164948  23.8476953907816 17.6907216494845  L 0.501002004008016 3.27835051546392  C 0.167000668002672 3.07216494845361  0 2.83505154639175  0 2.56701030927835  C 0 2.29896907216495  0.167000668002672 2.06185567010309  0.501002004008016 1.85567010309278  L 3.0060120240481 0.309278350515465  C 3.34001336005344 0.103092783505152  3.72411489645959 0  4.15831663326653 0  C 4.59251837007348 0  4.97661990647963 0.103092783505152  5.31062124248497 0.309278350515465  L 25 12.4639175257732  L 44.689378757515 0.309278350515465  C 45.0233800935204 0.103092783505152  45.4074816299265 0  45.8416833667335 0  C 46.2758851035404 0  46.6599866399466 0.103092783505152  46.9939879759519 0.309278350515465  L 49.498997995992 1.85567010309278  Z " fill-rule="nonzero" fill="#000000" stroke="none" transform="matrix(1 0 0 1 487 2119 )" />
  </g>
</svg>