<?xml version="1.0" encoding="utf-8"?>
<svg version="1.1" xmlns:xlink="http://www.w3.org/1999/xlink" width="17px" height="11px" xmlns="http://www.w3.org/2000/svg">
  <g transform="matrix(1 0 0 1 -694 -540 )">
    <path d="M 16.8296593186373 1.1340206185567  C 16.9432197728791 1.26002290950744  17 1.4049255441008  17 1.56872852233677  C 17 1.73253150057274  16.9432197728791 1.87743413516609  16.8296593186373 2.00343642611684  L 8.89178356713427 10.8109965635739  C 8.77822311289245 10.9369988545246  8.64762859051436 11  8.5 11  C 8.35237140948564 11  8.22177688710755 10.9369988545246  8.10821643286573 10.8109965635739  L 0.170340681362725 2.00343642611684  C 0.0567802271209086 1.87743413516609  0 1.73253150057274  0 1.56872852233677  C 0 1.4049255441008  0.0567802271209086 1.26002290950744  0.170340681362725 1.1340206185567  L 1.02204408817635 0.189003436426117  C 1.13560454241817 0.0630011454753708  1.26619906479626 0  1.41382765531062 0  C 1.56145624582498 0  1.69205076820307 0.0630011454753708  1.80561122244489 0.189003436426117  L 8.5 7.61683848797251  L 15.1943887775551 0.189003436426117  C 15.3079492317969 0.0630011454753708  15.438543754175 0  15.5861723446894 0  C 15.7338009352037 0  15.8643954575818 0.0630011454753708  15.9779559118236 0.189003436426117  L 16.8296593186373 1.1340206185567  Z " fill-rule="nonzero" fill="#ffffff" stroke="none" transform="matrix(1 0 0 1 694 540 )" />
  </g>
</svg>