<?xml version="1.0" encoding="utf-8"?>
<svg version="1.1" xmlns:xlink="http://www.w3.org/1999/xlink" width="18px" height="12px" xmlns="http://www.w3.org/2000/svg">
  <g transform="matrix(1 0 0 1 -694 -540 )">
    <path d="M 17.8196392785571 9.81443298969072  C 17.939879759519 9.95189003436426  18 10.1099656357388  18 10.2886597938144  C 18 10.46735395189  17.939879759519 10.6254295532646  17.8196392785571 10.7628865979381  L 16.9178356713427 11.7938144329897  C 16.7975951903808 11.9312714776632  16.6593186372746 12  16.503006012024 12  C 16.3466933867735 12  16.2084168336673 11.9312714776632  16.0881763527054 11.7938144329897  L 9 3.69072164948454  L 1.91182364729459 11.7938144329897  C 1.79158316633267 11.9312714776632  1.65330661322645 12  1.49699398797595 12  C 1.34068136272545 12  1.20240480961924 11.9312714776632  1.08216432865731 11.7938144329897  L 0.180360721442886 10.7628865979381  C 0.0601202404809621 10.6254295532646  0 10.46735395189  0 10.2886597938144  C 0 10.1099656357388  0.0601202404809621 9.95189003436426  0.180360721442886 9.81443298969072  L 8.58517034068136 0.20618556701031  C 8.70541082164329 0.0687285223367682  8.8436873747495 0  9 0  C 9.1563126252505 0  9.29458917835671 0.0687285223367682  9.41482965931864 0.20618556701031  L 17.8196392785571 9.81443298969072  Z " fill-rule="nonzero" fill="#ffffff" stroke="none" transform="matrix(1 0 0 1 694 540 )" />
  </g>
</svg>