<?xml version="1.0" encoding="utf-8"?>
<svg version="1.1" xmlns:xlink="http://www.w3.org/1999/xlink" width="19px" height="19px" xmlns="http://www.w3.org/2000/svg">
  <g transform="matrix(1 0 0 1 -763 -536 )">
    <path d="M 4.7314453125 1.30553702468312  C 6.18695746527778 0.435179008227707  7.77647569444444 0  9.5 0  C 11.2235243055556 0  12.8130425347222 0.435179008227707  14.2685546875 1.30553702468312  C 15.7240668402778 2.17589504113854  16.8765190972222 3.35679341783411  17.7259114583333 4.84823215476985  C 18.5753038194444 6.33967089170558  19 7.96842339337336  19 9.73448965977318  C 19 11.8554591950189  18.3959418402778 13.7630642650656  17.1878255208333 15.4573048699133  C 15.9797092013889 17.151545474761  14.4190538194444 18.3239937736269  12.505859375 18.974649766511  C 12.283203125 19.0169001556593  12.1182725694444 18.9873248832555  12.0110677083333 18.8859239492995  C 11.9038628472222 18.7845230153436  11.8502604166667 18.6577718478986  11.8502604166667 18.5056704469646  C 11.8502604166667 18.4803202134757  11.8523220486111 18.157104736491  11.8564453125 17.5360240160107  C 11.8605685763889 16.9149432955304  11.8626302083333 16.3466755614854  11.8626302083333 15.8312208138759  C 11.8626302083333 15.0115632643985  11.6482204861111 14.4116077384923  11.2194010416667 14.0313542361574  C 11.689453125 13.9806537691795  12.1120876736111 13.9046030687125  12.4873046875 13.8032021347565  C 12.8625217013889 13.7018012008005  13.2501085069444 13.5370246831221  13.6500651041667 13.3088725817211  C 14.0500217013889 13.0807204803202  14.3840060763889 12.7997553924839  14.6520182291667 12.4659773182121  C 14.9200303819444 12.1321992439404  15.1385633680556 11.688570157883  15.3076171875 11.13509006004  C 15.4766710069444 10.581609962197  15.5611979166667 9.94574160551478  15.5611979166667 9.22748498999333  C 15.5611979166667 8.22192572826329  15.2354600694444 7.35156771180787  14.583984375 6.61641094062709  C 14.8891059027778 5.84745385812764  14.8561197916667 4.98554591950189  14.4850260416667 4.03068712474983  C 14.2541232638889 3.95463642428286  13.9201388888889 4.00111185234601  13.4830729166667 4.17011340893929  C 13.0460069444444 4.33911496553258  12.6666666666667 4.52501667778519  12.3450520833333 4.72781854569713  L 11.875 5.03202134756504  C 11.1080729166667 4.81231932399377  10.31640625 4.70246831220814  9.5 4.70246831220814  C 8.68359375 4.70246831220814  7.89192708333333 4.81231932399377  7.125 5.03202134756504  C 6.99305555555556 4.93907049143874  6.81781684027778 4.82499444073827  6.59928385416667 4.68979319546364  C 6.38075086805556 4.55459195018901  6.03645833333333 4.39192795196798  5.56640625 4.20180120080053  C 5.09635416666667 4.01167444963309  4.74587673611111 3.95463642428286  4.51497395833333 4.03068712474983  C 4.14388020833333 4.98554591950189  4.11089409722222 5.84745385812764  4.416015625 6.61641094062709  C 3.76453993055556 7.35156771180787  3.43880208333333 8.22192572826329  3.43880208333333 9.22748498999333  C 3.43880208333333 9.94574160551478  3.52332899305556 10.5794974427396  3.6923828125 11.1287525016678  C 3.86143663194444 11.678007560596  4.07790798611111 12.1216366466533  4.341796875 12.4596397598399  C 4.60568576388889 12.7976428730265  4.93760850694444 13.0807204803202  5.33756510416667 13.3088725817211  C 5.73752170138889 13.5370246831221  6.12510850694444 13.7018012008005  6.50032552083333 13.8032021347565  C 6.87554253472222 13.9046030687125  7.29817708333333 13.9806537691795  7.76822916666667 14.0313542361574  C 7.44661458333333 14.3355570380254  7.24457465277778 14.7707360462531  7.162109375 15.3368912608406  C 6.98893229166667 15.4213920391372  6.80338541666667 15.4847676228597  6.60546875 15.527018012008  C 6.40755208333333 15.5692684011563  6.17252604166667 15.5903935957305  5.900390625 15.5903935957305  C 5.62825520833333 15.5903935957305  5.35818142361111 15.4995552590616  5.09016927083333 15.3178785857238  C 4.82215711805556 15.136201912386  4.59331597222222 14.872136980209  4.40364583333333 14.5256837891928  C 4.24696180555556 14.2552812986435  4.04698350694444 14.0355792750723  3.8037109375 13.866577718479  C 3.56043836805556 13.6975761618857  3.35633680555556 13.5961752279297  3.19140625 13.5623749166111  L 2.94401041666667 13.5243495663776  C 2.77083333333333 13.5243495663776  2.65125868055556 13.5433622414943  2.58528645833333 13.5813875917278  C 2.51931423611111 13.6194129419613  2.49869791666667 13.6680008894819  2.5234375 13.7271514342895  C 2.54817708333333 13.7863019790972  2.58528645833333 13.8454525239048  2.634765625 13.9046030687125  C 2.68424479166667 13.9637536135201  2.73784722222222 14.0144540804981  2.79557291666667 14.0567044696464  L 2.88216145833333 14.1200800533689  C 3.06358506944444 14.2045808316656  3.24294704861111 14.3651323104292  3.42024739583333 14.6017344896598  C 3.59754774305556 14.8383366688904  3.72743055555556 15.0538136535468  3.80989583333333 15.2481654436291  L 3.93359375 15.5396931287525  C 4.04079861111111 15.8607960862797  4.22222222222222 16.1206359795419  4.47786458333333 16.319212808539  C 4.73350694444445 16.5177896375361  5.009765625 16.6445408049811  5.306640625 16.6994663108739  C 5.603515625 16.7543918167667  5.89008246527778 16.7839670891706  6.16634114583333 16.7881921280854  C 6.44259982638889 16.7924171670002  6.67144097222222 16.7776295307983  6.85286458333333 16.7438292194797  L 7.13736979166667 16.6931287525017  C 7.13736979166667 17.0142317100289  7.13943142361111 17.3881476539915  7.1435546875 17.8148765843896  C 7.14767795138889 18.2416055147876  7.14973958333333 18.471870135646  7.14973958333333 18.5056704469646  C 7.14973958333333 18.6577718478986  7.09613715277778 18.7845230153436  6.98893229166667 18.8859239492995  C 6.88172743055556 18.9873248832555  6.716796875 19.0169001556593  6.494140625 18.974649766511  C 4.58094618055556 18.3239937736269  3.02029079861111 17.151545474761  1.81217447916667 15.4573048699133  C 0.604058159722222 13.7630642650656  0 11.8554591950189  0 9.73448965977318  C 0 7.96842339337336  0.424696180555555 6.33967089170558  1.27408854166667 4.84823215476985  C 2.12348090277778 3.35679341783411  3.27593315972222 2.17589504113854  4.7314453125 1.30553702468312  Z M 3.43880208333333 14.0060040026684  C 3.51302083333333 14.0567044696464  3.56662326388889 14.0482543918168  3.599609375 13.9806537691795  C 3.62434895833333 13.9215032243718  3.59548611111111 13.8708027573938  3.51302083333333 13.8285523682455  C 3.43055555555556 13.8032021347565  3.376953125 13.8116522125862  3.35221354166667 13.8539026017345  C 3.32747395833333 13.9130531465421  3.35633680555556 13.9637536135201  3.43880208333333 14.0060040026684  Z M 3.78515625 14.3735823882588  C 3.86762152777778 14.4580831665555  3.93359375 14.4707582833  3.98307291666667 14.4116077384923  C 4.04079861111111 14.369357349344  4.03255208333333 14.3017567267067  3.95833333333333 14.2088058705804  C 3.87586805555556 14.1327551701134  3.80989583333333 14.1200800533689  3.76041666666667 14.1707805203469  C 3.70269097222222 14.2130309094952  3.7109375 14.2806315321325  3.78515625 14.3735823882588  Z M 4.14388020833333 14.8932621747832  C 4.21809895833333 15.0031131865688  4.28819444444444 15.0326884589726  4.35416666666667 14.9819879919947  C 4.42838541666667 14.922837447187  4.42838541666667 14.8425617078052  4.35416666666667 14.7411607738492  C 4.28819444444444 14.6313097620636  4.21809895833333 14.6059595285746  4.14388020833333 14.6651100733823  C 4.06966145833333 14.7073604625306  4.06966145833333 14.7834111629976  4.14388020833333 14.8932621747832  Z M 4.62630208333333 15.47631754503  C 4.72526041666667 15.577718478986  4.80772569444444 15.5903935957305  4.87369791666667 15.5143428952635  C 4.93967013888889 15.4467422726262  4.92317708333333 15.3664665332444  4.82421875 15.2735156771181  C 4.72526041666667 15.1721147431621  4.64279513888889 15.1594396264176  4.57682291666667 15.2354903268846  C 4.50260416666667 15.3030909495219  4.51909722222222 15.3833666889037  4.62630208333333 15.47631754503  Z M 5.34375 15.9072715143429  C 5.46744791666667 15.9579719813209  5.54578993055556 15.9326217478319  5.57877604166667 15.8312208138759  C 5.603515625 15.7382699577496  5.54991319444444 15.6706693351123  5.41796875 15.628418945964  C 5.29427083333333 15.5946186346453  5.21592881944444 15.6241939070491  5.18294270833333 15.7171447631754  C 5.14995659722222 15.8100956193018  5.20355902777778 15.8734712030242  5.34375 15.9072715143429  Z M 6.16015625 16.0340226817879  C 6.29210069444444 16.0340226817879  6.35807291666667 15.9875472537247  6.35807291666667 15.8945963975984  C 6.35807291666667 15.7847453858128  6.28797743055556 15.7382699577496  6.14778645833333 15.7551701134089  C 6.01584201388889 15.7551701134089  5.94986979166667 15.8016455414721  5.94986979166667 15.8945963975984  C 5.94986979166667 16.004447409384  6.01996527777778 16.0509228374472  6.16015625 16.0340226817879  Z M 6.90234375 15.9452968645764  C 7.03428819444444 15.9114965532577  7.09201388888889 15.8523460084501  7.07552083333333 15.7678452301534  C 7.05902777777778 15.6748943740271  6.98480902777778 15.6368690237936  6.85286458333333 15.653769179453  C 6.72092013888889 15.679119412942  6.66319444444444 15.7424949966644  6.6796875 15.8438959306204  C 6.69618055555556 15.9452968645764  6.77039930555556 15.979097175895  6.90234375 15.9452968645764  Z " fill-rule="nonzero" fill="#ffffff" stroke="none" transform="matrix(1 0 0 1 763 536 )" />
  </g>
</svg>